# xmcd
#
# Track frame offsets:
#	150
#	14445
#	32581
#	48714
#	69763
#	83126
#	106163
#	122212
#	152949
#	170306
#	191221
#
# Disc length: 2890 seconds
#
# Revision: 1
# Processed by: cddbd v1.5.2PL0 Copyright (c) Steve Scherf et al.
# Submitted via: audiograbber 1.83.01
#
DISCID=8c0b480b
DTITLE=JonesTM - HC200716
DYEAR=2007
DGENRE=Top 40
TTITLE0=Tim Murphy - Burn Me Down
TTITLE1=Keith Urban - I Told You So [Edit]
TTITLE2=Martina McBride - How I Feel [Single Edit]
TTITLE3=Keith Anderson - Sunday Morning In America [Radio Edit]
TTITLE4=Omarion - Beg For It
TTITLE5=Joe Sample and Randy Crawford - Rio De Janeiro Blue [Album Version]
TTITLE6=Jonathan Poretz - On The Street Where You Live [Album Version
TTITLE7=Bradley Leighton - Dona Maria [Album Version]
TTITLE8=Sherri Roberts - Before [Album Version]
TTITLE9=Ken Navarro - My Beautiful Girls
TTITLE10=U-Nam - Street Life
EXTD=
EXTT0=
EXTT1=
EXTT2=
EXTT3=
EXTT4=
EXTT5=
EXTT6=
EXTT7=
EXTT8=
EXTT9=
EXTT10=
PLAYORDER=
